<?xml version="1.0" encoding="UTF-8" standalone="no"?>
<!DOCTYPE svg PUBLIC "-//W3C//DTD SVG 1.1//EN"
 "http://www.w3.org/Graphics/SVG/1.1/DTD/svg11.dtd">
<!-- Generated by graphviz version 2.40.1 (20161225.0304)
 -->
<!-- Title: dependencies Pages: 1 -->
<svg width="504pt" height="284pt"
 viewBox="0.00 0.00 504.00 284.00" xmlns="http://www.w3.org/2000/svg" xmlns:xlink="http://www.w3.org/1999/xlink">
<g id="graph0" class="graph" transform="scale(1 1) rotate(0) translate(4 280)">
<title>dependencies</title>
<polygon fill="#ffffff" stroke="transparent" points="-4,4 -4,-280 500,-280 500,4 -4,4"/>
<text text-anchor="start" x="227.0091" y="-42.4" font-family="sans-serif" font-weight="bold" font-size="14.00" fill="#000000">Legend</text>
<polygon fill="#ffffb3" stroke="transparent" points="14,-10 14,-30 34,-30 34,-10 14,-10"/>
<text text-anchor="start" x="37.629" y="-15.4" font-family="sans-serif" font-size="14.00" fill="#000000"> &#160;Declarations</text>
<polygon fill="#8dd3c7" stroke="transparent" points="127,-10 127,-30 147,-30 147,-10 127,-10"/>
<text text-anchor="start" x="150.7251" y="-15.4" font-family="sans-serif" font-size="14.00" fill="#000000"> &#160;Module</text>
<polygon fill="#80b1d3" stroke="transparent" points="213,-10 213,-30 233,-30 233,-10 213,-10"/>
<text text-anchor="start" x="236.7812" y="-15.4" font-family="sans-serif" font-size="14.00" fill="#000000"> &#160;Bootstrap</text>
<polygon fill="#fdb462" stroke="transparent" points="310,-10 310,-30 330,-30 330,-10 310,-10"/>
<text text-anchor="start" x="333.6732" y="-15.4" font-family="sans-serif" font-size="14.00" fill="#000000"> &#160;Providers</text>
<polygon fill="#fb8072" stroke="transparent" points="406,-10 406,-30 426,-30 426,-10 406,-10"/>
<text text-anchor="start" x="429.7258" y="-15.4" font-family="sans-serif" font-size="14.00" fill="#000000"> &#160;Exports</text>
<g id="clust1" class="cluster">
<title>cluster_ChatModule</title>
<polygon fill="none" stroke="#000000" stroke-dasharray="1,5" points="89,-70 89,-268 407,-268 407,-70 89,-70"/>
</g>
<g id="clust2" class="cluster">
<title>cluster_ChatModule_declarations</title>
<polygon fill="none" stroke="#000000" points="237,-78 237,-130 399,-130 399,-78 237,-78"/>
</g>
<g id="clust5" class="cluster">
<title>cluster_ChatModule_exports</title>
<polygon fill="none" stroke="#000000" points="165,-208 165,-260 331,-260 331,-208 165,-208"/>
</g>
<g id="clust7" class="cluster">
<title>cluster_ChatModule_providers</title>
<polygon fill="none" stroke="#000000" points="97,-78 97,-130 229,-130 229,-78 97,-78"/>
</g>
<!-- ChatDialogComponent -->
<g id="node1" class="node">
<title>ChatDialogComponent</title>
<polygon fill="#ffffb3" stroke="#000000" points="390.8767,-122 245.1233,-122 245.1233,-86 390.8767,-86 390.8767,-122"/>
<text text-anchor="middle" x="318" y="-99.8" font-family="Times,serif" font-size="14.00" fill="#000000">ChatDialogComponent</text>
</g>
<!-- ChatModule -->
<g id="node2" class="node">
<title>ChatModule</title>
<polygon fill="#8dd3c7" stroke="#000000" points="290.9916,-187 287.9916,-191 266.9916,-191 263.9916,-187 205.0084,-187 205.0084,-151 290.9916,-151 290.9916,-187"/>
<text text-anchor="middle" x="248" y="-164.8" font-family="Times,serif" font-size="14.00" fill="#000000">ChatModule</text>
</g>
<!-- ChatDialogComponent&#45;&gt;ChatModule -->
<g id="edge1" class="edge">
<title>ChatDialogComponent&#45;&gt;ChatModule</title>
<path fill="none" stroke="#000000" d="M268.0288,-122.1061C268.0288,-122.1061 268.0288,-140.991 268.0288,-140.991"/>
<polygon fill="#000000" stroke="#000000" points="264.5288,-140.9909 268.0288,-150.991 271.5288,-140.991 264.5288,-140.9909"/>
</g>
<!-- ChatDialogComponent  -->
<g id="node3" class="node">
<title>ChatDialogComponent </title>
<polygon fill="#fb8072" stroke="#000000" points="322.8771,-252 173.1229,-252 173.1229,-216 322.8771,-216 322.8771,-252"/>
<text text-anchor="middle" x="248" y="-229.8" font-family="Times,serif" font-size="14.00" fill="#000000">ChatDialogComponent </text>
</g>
<!-- ChatModule&#45;&gt;ChatDialogComponent  -->
<g id="edge2" class="edge">
<title>ChatModule&#45;&gt;ChatDialogComponent </title>
<path fill="none" stroke="#000000" stroke-dasharray="5,2" d="M248,-187.1061C248,-187.1061 248,-205.991 248,-205.991"/>
<polygon fill="#000000" stroke="#000000" points="244.5001,-205.9909 248,-215.991 251.5001,-205.991 244.5001,-205.9909"/>
</g>
<!-- ChatService -->
<g id="node4" class="node">
<title>ChatService</title>
<ellipse fill="#fdb462" stroke="#000000" cx="163" cy="-104" rx="58.4628" ry="18"/>
<text text-anchor="middle" x="163" y="-99.8" font-family="Times,serif" font-size="14.00" fill="#000000">ChatService</text>
</g>
<!-- ChatService&#45;&gt;ChatModule -->
<g id="edge3" class="edge">
<title>ChatService&#45;&gt;ChatModule</title>
<path fill="none" stroke="#000000" d="M213.1176,-113.3129C213.1176,-113.3129 213.1176,-140.852 213.1176,-140.852"/>
<polygon fill="#000000" stroke="#000000" points="209.6177,-140.852 213.1176,-150.852 216.6177,-140.8521 209.6177,-140.852"/>
</g>
</g>
</svg>
