<?xml version="1.0" encoding="UTF-8" standalone="no"?>
<!DOCTYPE svg PUBLIC "-//W3C//DTD SVG 1.1//EN"
 "http://www.w3.org/Graphics/SVG/1.1/DTD/svg11.dtd">
<!-- Generated by graphviz version 2.40.1 (20161225.0304)
 -->
<!-- Title: dependencies Pages: 1 -->
<svg width="1954pt" height="284pt"
 viewBox="0.00 0.00 1954.00 284.00" xmlns="http://www.w3.org/2000/svg" xmlns:xlink="http://www.w3.org/1999/xlink">
<g id="graph0" class="graph" transform="scale(1 1) rotate(0) translate(4 280)">
<title>dependencies</title>
<polygon fill="#ffffff" stroke="transparent" points="-4,4 -4,-280 1950,-280 1950,4 -4,4"/>
<text text-anchor="start" x="952.0091" y="-42.4" font-family="sans-serif" font-weight="bold" font-size="14.00" fill="#000000">Legend</text>
<polygon fill="#ffffb3" stroke="transparent" points="739,-10 739,-30 759,-30 759,-10 739,-10"/>
<text text-anchor="start" x="762.629" y="-15.4" font-family="sans-serif" font-size="14.00" fill="#000000"> &#160;Declarations</text>
<polygon fill="#8dd3c7" stroke="transparent" points="852,-10 852,-30 872,-30 872,-10 852,-10"/>
<text text-anchor="start" x="875.7251" y="-15.4" font-family="sans-serif" font-size="14.00" fill="#000000"> &#160;Module</text>
<polygon fill="#80b1d3" stroke="transparent" points="938,-10 938,-30 958,-30 958,-10 938,-10"/>
<text text-anchor="start" x="961.7812" y="-15.4" font-family="sans-serif" font-size="14.00" fill="#000000"> &#160;Bootstrap</text>
<polygon fill="#fdb462" stroke="transparent" points="1035,-10 1035,-30 1055,-30 1055,-10 1035,-10"/>
<text text-anchor="start" x="1058.6732" y="-15.4" font-family="sans-serif" font-size="14.00" fill="#000000"> &#160;Providers</text>
<polygon fill="#fb8072" stroke="transparent" points="1131,-10 1131,-30 1151,-30 1151,-10 1131,-10"/>
<text text-anchor="start" x="1154.7258" y="-15.4" font-family="sans-serif" font-size="14.00" fill="#000000"> &#160;Exports</text>
<g id="clust1" class="cluster">
<title>cluster_AppModule</title>
<polygon fill="none" stroke="#000000" stroke-dasharray="1,5" points="8,-70 8,-268 1938,-268 1938,-70 8,-70"/>
</g>
<g id="clust2" class="cluster">
<title>cluster_AppModule_declarations</title>
<polygon fill="none" stroke="#000000" points="246,-78 246,-130 1930,-130 1930,-78 246,-78"/>
</g>
<g id="clust14" class="cluster">
<title>cluster_AppModule_imports</title>
<polygon fill="none" stroke="#000000" points="16,-78 16,-130 238,-130 238,-78 16,-78"/>
</g>
<g id="clust16" class="cluster">
<title>cluster_AppModule_bootstrap</title>
<polygon fill="none" stroke="#000000" points="875,-208 875,-260 999,-260 999,-208 875,-208"/>
</g>
<!-- AboutPageComponent -->
<g id="node1" class="node">
<title>AboutPageComponent</title>
<polygon fill="#ffffb3" stroke="#000000" points="1921.5421,-122 1778.4579,-122 1778.4579,-86 1921.5421,-86 1921.5421,-122"/>
<text text-anchor="middle" x="1850" y="-99.8" font-family="Times,serif" font-size="14.00" fill="#000000">AboutPageComponent</text>
</g>
<!-- AppModule -->
<g id="node12" class="node">
<title>AppModule</title>
<polygon fill="#8dd3c7" stroke="#000000" points="978.6571,-187 975.6571,-191 954.6571,-191 951.6571,-187 895.3429,-187 895.3429,-151 978.6571,-151 978.6571,-187"/>
<text text-anchor="middle" x="937" y="-164.8" font-family="Times,serif" font-size="14.00" fill="#000000">AppModule</text>
</g>
<!-- AboutPageComponent&#45;&gt;AppModule -->
<g id="edge1" class="edge">
<title>AboutPageComponent&#45;&gt;AppModule</title>
<path fill="none" stroke="#000000" d="M1850,-122.0908C1850,-145.1328 1850,-182 1850,-182 1850,-182 988.903,-182 988.903,-182"/>
<polygon fill="#000000" stroke="#000000" points="988.903,-178.5001 978.903,-182 988.903,-185.5001 988.903,-178.5001"/>
</g>
<!-- AlertComponent -->
<g id="node2" class="node">
<title>AlertComponent</title>
<polygon fill="#ffffb3" stroke="#000000" points="1760.0954,-122 1649.9046,-122 1649.9046,-86 1760.0954,-86 1760.0954,-122"/>
<text text-anchor="middle" x="1705" y="-99.8" font-family="Times,serif" font-size="14.00" fill="#000000">AlertComponent</text>
</g>
<!-- AlertComponent&#45;&gt;AppModule -->
<g id="edge2" class="edge">
<title>AlertComponent&#45;&gt;AppModule</title>
<path fill="none" stroke="#000000" d="M1705,-122.0449C1705,-143.6623 1705,-177 1705,-177 1705,-177 988.8364,-177 988.8364,-177"/>
<polygon fill="#000000" stroke="#000000" points="988.8365,-173.5001 978.8364,-177 988.8364,-180.5001 988.8365,-173.5001"/>
</g>
<!-- AppComponent -->
<g id="node3" class="node">
<title>AppComponent</title>
<polygon fill="#ffffb3" stroke="#000000" points="1631.9399,-122 1526.0601,-122 1526.0601,-86 1631.9399,-86 1631.9399,-122"/>
<text text-anchor="middle" x="1579" y="-99.8" font-family="Times,serif" font-size="14.00" fill="#000000">AppComponent</text>
</g>
<!-- AppComponent&#45;&gt;AppModule -->
<g id="edge3" class="edge">
<title>AppComponent&#45;&gt;AppModule</title>
<path fill="none" stroke="#000000" d="M1579,-122.2228C1579,-142.3652 1579,-172 1579,-172 1579,-172 989.1234,-172 989.1234,-172"/>
<polygon fill="#000000" stroke="#000000" points="989.1234,-168.5001 979.1234,-172 989.1234,-175.5001 989.1234,-168.5001"/>
</g>
<!-- BudgetReservationComponent -->
<g id="node4" class="node">
<title>BudgetReservationComponent</title>
<polygon fill="#ffffb3" stroke="#000000" points="1508.1413,-122 1319.8587,-122 1319.8587,-86 1508.1413,-86 1508.1413,-122"/>
<text text-anchor="middle" x="1414" y="-99.8" font-family="Times,serif" font-size="14.00" fill="#000000">BudgetReservationComponent</text>
</g>
<!-- BudgetReservationComponent&#45;&gt;AppModule -->
<g id="edge4" class="edge">
<title>BudgetReservationComponent&#45;&gt;AppModule</title>
<path fill="none" stroke="#000000" d="M1414,-122.2222C1414,-140.8285 1414,-167 1414,-167 1414,-167 988.9125,-167 988.9125,-167"/>
<polygon fill="#000000" stroke="#000000" points="988.9125,-163.5001 978.9125,-167 988.9125,-170.5001 988.9125,-163.5001"/>
</g>
<!-- CarPageComponent -->
<g id="node5" class="node">
<title>CarPageComponent</title>
<polygon fill="#ffffb3" stroke="#000000" points="1301.2562,-122 1172.7438,-122 1172.7438,-86 1301.2562,-86 1301.2562,-122"/>
<text text-anchor="middle" x="1237" y="-99.8" font-family="Times,serif" font-size="14.00" fill="#000000">CarPageComponent</text>
</g>
<!-- CarPageComponent&#45;&gt;AppModule -->
<g id="edge5" class="edge">
<title>CarPageComponent&#45;&gt;AppModule</title>
<path fill="none" stroke="#000000" d="M1237,-122.0336C1237,-139.0597 1237,-162 1237,-162 1237,-162 988.7137,-162 988.7137,-162"/>
<polygon fill="#000000" stroke="#000000" points="988.7137,-158.5001 978.7137,-162 988.7137,-165.5001 988.7137,-158.5001"/>
</g>
<!-- FlightPageComponent -->
<g id="node6" class="node">
<title>FlightPageComponent</title>
<polygon fill="#ffffb3" stroke="#000000" points="1154.9986,-122 1013.0014,-122 1013.0014,-86 1154.9986,-86 1154.9986,-122"/>
<text text-anchor="middle" x="1084" y="-99.8" font-family="Times,serif" font-size="14.00" fill="#000000">FlightPageComponent</text>
</g>
<!-- FlightPageComponent&#45;&gt;AppModule -->
<g id="edge6" class="edge">
<title>FlightPageComponent&#45;&gt;AppModule</title>
<path fill="none" stroke="#000000" d="M1084,-122.2396C1084,-137.5706 1084,-157 1084,-157 1084,-157 988.7311,-157 988.7311,-157"/>
<polygon fill="#000000" stroke="#000000" points="988.7311,-153.5001 978.7311,-157 988.7311,-160.5001 988.7311,-153.5001"/>
</g>
<!-- HomeComponent -->
<g id="node7" class="node">
<title>HomeComponent</title>
<polygon fill="#ffffb3" stroke="#000000" points="994.5451,-122 879.4549,-122 879.4549,-86 994.5451,-86 994.5451,-122"/>
<text text-anchor="middle" x="937" y="-99.8" font-family="Times,serif" font-size="14.00" fill="#000000">HomeComponent</text>
</g>
<!-- HomeComponent&#45;&gt;AppModule -->
<g id="edge7" class="edge">
<title>HomeComponent&#45;&gt;AppModule</title>
<path fill="none" stroke="#000000" d="M937,-122.1061C937,-122.1061 937,-140.991 937,-140.991"/>
<polygon fill="#000000" stroke="#000000" points="933.5001,-140.9909 937,-150.991 940.5001,-140.991 933.5001,-140.9909"/>
</g>
<!-- HotelPageComponent -->
<g id="node8" class="node">
<title>HotelPageComponent</title>
<polygon fill="#ffffb3" stroke="#000000" points="860.647,-122 721.353,-122 721.353,-86 860.647,-86 860.647,-122"/>
<text text-anchor="middle" x="791" y="-99.8" font-family="Times,serif" font-size="14.00" fill="#000000">HotelPageComponent</text>
</g>
<!-- HotelPageComponent&#45;&gt;AppModule -->
<g id="edge8" class="edge">
<title>HotelPageComponent&#45;&gt;AppModule</title>
<path fill="none" stroke="#000000" d="M791,-122.2396C791,-137.5706 791,-157 791,-157 791,-157 885.1623,-157 885.1623,-157"/>
<polygon fill="#000000" stroke="#000000" points="885.1623,-160.5001 895.1623,-157 885.1622,-153.5001 885.1623,-160.5001"/>
</g>
<!-- LoginComponent -->
<g id="node9" class="node">
<title>LoginComponent</title>
<polygon fill="#ffffb3" stroke="#000000" points="703.2758,-122 588.7242,-122 588.7242,-86 703.2758,-86 703.2758,-122"/>
<text text-anchor="middle" x="646" y="-99.8" font-family="Times,serif" font-size="14.00" fill="#000000">LoginComponent</text>
</g>
<!-- LoginComponent&#45;&gt;AppModule -->
<g id="edge9" class="edge">
<title>LoginComponent&#45;&gt;AppModule</title>
<path fill="none" stroke="#000000" d="M646,-122.0336C646,-139.0597 646,-162 646,-162 646,-162 885.3068,-162 885.3068,-162"/>
<polygon fill="#000000" stroke="#000000" points="885.3068,-165.5001 895.3068,-162 885.3068,-158.5001 885.3068,-165.5001"/>
</g>
<!-- TourPackagesComponent -->
<g id="node10" class="node">
<title>TourPackagesComponent</title>
<polygon fill="#ffffb3" stroke="#000000" points="570.1316,-122 409.8684,-122 409.8684,-86 570.1316,-86 570.1316,-122"/>
<text text-anchor="middle" x="490" y="-99.8" font-family="Times,serif" font-size="14.00" fill="#000000">TourPackagesComponent</text>
</g>
<!-- TourPackagesComponent&#45;&gt;AppModule -->
<g id="edge10" class="edge">
<title>TourPackagesComponent&#45;&gt;AppModule</title>
<path fill="none" stroke="#000000" d="M490,-122.2222C490,-140.8285 490,-167 490,-167 490,-167 884.9473,-167 884.9473,-167"/>
<polygon fill="#000000" stroke="#000000" points="884.9474,-170.5001 894.9473,-167 884.9473,-163.5001 884.9474,-170.5001"/>
</g>
<!-- UserPostsComponent -->
<g id="node11" class="node">
<title>UserPostsComponent</title>
<polygon fill="#ffffb3" stroke="#000000" points="391.8216,-122 254.1784,-122 254.1784,-86 391.8216,-86 391.8216,-122"/>
<text text-anchor="middle" x="323" y="-99.8" font-family="Times,serif" font-size="14.00" fill="#000000">UserPostsComponent</text>
</g>
<!-- UserPostsComponent&#45;&gt;AppModule -->
<g id="edge11" class="edge">
<title>UserPostsComponent&#45;&gt;AppModule</title>
<path fill="none" stroke="#000000" d="M323,-122.2228C323,-142.3652 323,-172 323,-172 323,-172 885.28,-172 885.28,-172"/>
<polygon fill="#000000" stroke="#000000" points="885.28,-175.5001 895.28,-172 885.28,-168.5001 885.28,-175.5001"/>
</g>
<!-- AppComponent  -->
<g id="node15" class="node">
<title>AppComponent </title>
<polygon fill="#80b1d3" stroke="#000000" points="991.439,-252 882.561,-252 882.561,-216 991.439,-216 991.439,-252"/>
<text text-anchor="middle" x="937" y="-229.8" font-family="Times,serif" font-size="14.00" fill="#000000">AppComponent </text>
</g>
<!-- AppModule&#45;&gt;AppComponent  -->
<g id="edge14" class="edge">
<title>AppModule&#45;&gt;AppComponent </title>
<path fill="none" stroke="#000000" stroke-dasharray="1,5" d="M937,-187.1061C937,-187.1061 937,-205.991 937,-205.991"/>
<polygon fill="#000000" stroke="#000000" points="933.5001,-205.9909 937,-215.991 940.5001,-205.991 933.5001,-205.9909"/>
</g>
<!-- ChatModule -->
<g id="node13" class="node">
<title>ChatModule</title>
<polygon fill="#8dd3c7" stroke="#000000" points="229.9916,-122 226.9916,-126 205.9916,-126 202.9916,-122 144.0084,-122 144.0084,-86 229.9916,-86 229.9916,-122"/>
<text text-anchor="middle" x="187" y="-99.8" font-family="Times,serif" font-size="14.00" fill="#000000">ChatModule</text>
</g>
<!-- ChatModule&#45;&gt;AppModule -->
<g id="edge12" class="edge">
<title>ChatModule&#45;&gt;AppModule</title>
<path fill="none" stroke="#000000" d="M187,-122.0449C187,-143.6623 187,-177 187,-177 187,-177 885.3394,-177 885.3394,-177"/>
<polygon fill="#000000" stroke="#000000" points="885.3395,-180.5001 895.3394,-177 885.3394,-173.5001 885.3395,-180.5001"/>
</g>
<!-- DefaultModule -->
<g id="node14" class="node">
<title>DefaultModule</title>
<polygon fill="#8dd3c7" stroke="#000000" points="125.5285,-122 122.5285,-126 101.5285,-126 98.5285,-122 24.4715,-122 24.4715,-86 125.5285,-86 125.5285,-122"/>
<text text-anchor="middle" x="75" y="-99.8" font-family="Times,serif" font-size="14.00" fill="#000000">DefaultModule</text>
</g>
<!-- DefaultModule&#45;&gt;AppModule -->
<g id="edge13" class="edge">
<title>DefaultModule&#45;&gt;AppModule</title>
<path fill="none" stroke="#000000" d="M75,-122.0908C75,-145.1328 75,-182 75,-182 75,-182 885.1326,-182 885.1326,-182"/>
<polygon fill="#000000" stroke="#000000" points="885.1327,-185.5001 895.1326,-182 885.1326,-178.5001 885.1327,-185.5001"/>
</g>
</g>
</svg>
