<?xml version="1.0" encoding="UTF-8" standalone="no"?>
<!DOCTYPE svg PUBLIC "-//W3C//DTD SVG 1.1//EN"
 "http://www.w3.org/Graphics/SVG/1.1/DTD/svg11.dtd">
<!-- Generated by graphviz version 2.40.1 (20161225.0304)
 -->
<!-- Title: dependencies Pages: 1 -->
<svg width="1308pt" height="284pt"
 viewBox="0.00 0.00 1308.00 284.00" xmlns="http://www.w3.org/2000/svg" xmlns:xlink="http://www.w3.org/1999/xlink">
<g id="graph0" class="graph" transform="scale(1 1) rotate(0) translate(4 280)">
<title>dependencies</title>
<polygon fill="#ffffff" stroke="transparent" points="-4,4 -4,-280 1304,-280 1304,4 -4,4"/>
<text text-anchor="start" x="629.0091" y="-42.4" font-family="sans-serif" font-weight="bold" font-size="14.00" fill="#000000">Legend</text>
<polygon fill="#ffffb3" stroke="transparent" points="416,-10 416,-30 436,-30 436,-10 416,-10"/>
<text text-anchor="start" x="439.629" y="-15.4" font-family="sans-serif" font-size="14.00" fill="#000000"> &#160;Declarations</text>
<polygon fill="#8dd3c7" stroke="transparent" points="529,-10 529,-30 549,-30 549,-10 529,-10"/>
<text text-anchor="start" x="552.7251" y="-15.4" font-family="sans-serif" font-size="14.00" fill="#000000"> &#160;Module</text>
<polygon fill="#80b1d3" stroke="transparent" points="615,-10 615,-30 635,-30 635,-10 615,-10"/>
<text text-anchor="start" x="638.7812" y="-15.4" font-family="sans-serif" font-size="14.00" fill="#000000"> &#160;Bootstrap</text>
<polygon fill="#fdb462" stroke="transparent" points="712,-10 712,-30 732,-30 732,-10 712,-10"/>
<text text-anchor="start" x="735.6732" y="-15.4" font-family="sans-serif" font-size="14.00" fill="#000000"> &#160;Providers</text>
<polygon fill="#fb8072" stroke="transparent" points="808,-10 808,-30 828,-30 828,-10 808,-10"/>
<text text-anchor="start" x="831.7258" y="-15.4" font-family="sans-serif" font-size="14.00" fill="#000000"> &#160;Exports</text>
<g id="clust1" class="cluster">
<title>cluster_SharedModule</title>
<polygon fill="none" stroke="#000000" stroke-dasharray="1,5" points="8,-70 8,-268 1292,-268 1292,-70 8,-70"/>
</g>
<g id="clust2" class="cluster">
<title>cluster_SharedModule_declarations</title>
<polygon fill="none" stroke="#000000" points="32,-78 32,-130 1267,-130 1267,-78 32,-78"/>
</g>
<g id="clust13" class="cluster">
<title>cluster_SharedModule_exports</title>
<polygon fill="none" stroke="#000000" points="16,-208 16,-260 1284,-260 1284,-208 16,-208"/>
</g>
<!-- AreaComponent -->
<g id="node1" class="node">
<title>AreaComponent</title>
<polygon fill="#ffffb3" stroke="#000000" points="1259.0298,-122 1150.9702,-122 1150.9702,-86 1259.0298,-86 1259.0298,-122"/>
<text text-anchor="middle" x="1205" y="-99.8" font-family="Times,serif" font-size="14.00" fill="#000000">AreaComponent</text>
</g>
<!-- SharedModule -->
<g id="node10" class="node">
<title>SharedModule</title>
<polygon fill="#8dd3c7" stroke="#000000" points="690.4231,-187 687.4231,-191 666.4231,-191 663.4231,-187 591.5769,-187 591.5769,-151 690.4231,-151 690.4231,-187"/>
<text text-anchor="middle" x="641" y="-164.8" font-family="Times,serif" font-size="14.00" fill="#000000">SharedModule</text>
</g>
<!-- AreaComponent&#45;&gt;SharedModule -->
<g id="edge1" class="edge">
<title>AreaComponent&#45;&gt;SharedModule</title>
<path fill="none" stroke="#000000" d="M1157.3606,-122.2222C1157.3606,-140.8285 1157.3606,-167 1157.3606,-167 1157.3606,-167 700.5108,-167 700.5108,-167"/>
<polygon fill="#000000" stroke="#000000" points="700.5109,-163.5001 690.5108,-167 700.5108,-170.5001 700.5109,-163.5001"/>
</g>
<!-- CardComponent -->
<g id="node2" class="node">
<title>CardComponent</title>
<polygon fill="#ffffb3" stroke="#000000" points="1132.0452,-122 1023.9548,-122 1023.9548,-86 1132.0452,-86 1132.0452,-122"/>
<text text-anchor="middle" x="1078" y="-99.8" font-family="Times,serif" font-size="14.00" fill="#000000">CardComponent</text>
</g>
<!-- CardComponent&#45;&gt;SharedModule -->
<g id="edge2" class="edge">
<title>CardComponent&#45;&gt;SharedModule</title>
<path fill="none" stroke="#000000" d="M1028.8529,-122.0225C1028.8529,-139.3734 1028.8529,-163 1028.8529,-163 1028.8529,-163 700.5158,-163 700.5158,-163"/>
<polygon fill="#000000" stroke="#000000" points="700.5158,-159.5001 690.5158,-163 700.5158,-166.5001 700.5158,-159.5001"/>
</g>
<!-- ColumnchartComponent -->
<g id="node3" class="node">
<title>ColumnchartComponent</title>
<polygon fill="#ffffb3" stroke="#000000" points="1006.4312,-122 851.5688,-122 851.5688,-86 1006.4312,-86 1006.4312,-122"/>
<text text-anchor="middle" x="929" y="-99.8" font-family="Times,serif" font-size="14.00" fill="#000000">ColumnchartComponent</text>
</g>
<!-- ColumnchartComponent&#45;&gt;SharedModule -->
<g id="edge3" class="edge">
<title>ColumnchartComponent&#45;&gt;SharedModule</title>
<path fill="none" stroke="#000000" d="M956.8218,-122.0091C956.8218,-138.0494 956.8218,-159 956.8218,-159 956.8218,-159 700.3472,-159 700.3472,-159"/>
<polygon fill="#000000" stroke="#000000" points="700.3472,-155.5001 690.3472,-159 700.3471,-162.5001 700.3472,-155.5001"/>
</g>
<!-- DonutComponent -->
<g id="node4" class="node">
<title>DonutComponent</title>
<polygon fill="#ffffb3" stroke="#000000" points="834.3301,-122 717.6699,-122 717.6699,-86 834.3301,-86 834.3301,-122"/>
<text text-anchor="middle" x="776" y="-99.8" font-family="Times,serif" font-size="14.00" fill="#000000">DonutComponent</text>
</g>
<!-- DonutComponent&#45;&gt;SharedModule -->
<g id="edge4" class="edge">
<title>DonutComponent&#45;&gt;SharedModule</title>
<path fill="none" stroke="#000000" d="M796.1383,-122.1243C796.1383,-136.7832 796.1383,-155 796.1383,-155 796.1383,-155 700.5133,-155 700.5133,-155"/>
<polygon fill="#000000" stroke="#000000" points="700.5133,-151.5001 690.5133,-155 700.5132,-158.5001 700.5133,-151.5001"/>
</g>
<!-- FooterComponent -->
<g id="node5" class="node">
<title>FooterComponent</title>
<polygon fill="#ffffb3" stroke="#000000" points="699.8809,-122 582.1191,-122 582.1191,-86 699.8809,-86 699.8809,-122"/>
<text text-anchor="middle" x="641" y="-99.8" font-family="Times,serif" font-size="14.00" fill="#000000">FooterComponent</text>
</g>
<!-- FooterComponent&#45;&gt;SharedModule -->
<g id="edge5" class="edge">
<title>FooterComponent&#45;&gt;SharedModule</title>
<path fill="none" stroke="#000000" d="M641,-122.1061C641,-122.1061 641,-140.991 641,-140.991"/>
<polygon fill="#000000" stroke="#000000" points="637.5001,-140.9909 641,-150.991 644.5001,-140.991 637.5001,-140.9909"/>
</g>
<!-- HeaderComponent -->
<g id="node6" class="node">
<title>HeaderComponent</title>
<polygon fill="#ffffb3" stroke="#000000" points="563.7437,-122 442.2563,-122 442.2563,-86 563.7437,-86 563.7437,-122"/>
<text text-anchor="middle" x="503" y="-99.8" font-family="Times,serif" font-size="14.00" fill="#000000">HeaderComponent</text>
</g>
<!-- HeaderComponent&#45;&gt;SharedModule -->
<g id="edge6" class="edge">
<title>HeaderComponent&#45;&gt;SharedModule</title>
<path fill="none" stroke="#000000" d="M522.4572,-122.1243C522.4572,-136.7832 522.4572,-155 522.4572,-155 522.4572,-155 581.757,-155 581.757,-155"/>
<polygon fill="#000000" stroke="#000000" points="581.7571,-158.5001 591.757,-155 581.757,-151.5001 581.7571,-158.5001"/>
</g>
<!-- PieComponent -->
<g id="node7" class="node">
<title>PieComponent</title>
<polygon fill="#ffffb3" stroke="#000000" points="424.7204,-122 325.2796,-122 325.2796,-86 424.7204,-86 424.7204,-122"/>
<text text-anchor="middle" x="375" y="-99.8" font-family="Times,serif" font-size="14.00" fill="#000000">PieComponent</text>
</g>
<!-- PieComponent&#45;&gt;SharedModule -->
<g id="edge7" class="edge">
<title>PieComponent&#45;&gt;SharedModule</title>
<path fill="none" stroke="#000000" d="M388.0367,-122.0091C388.0367,-138.0494 388.0367,-159 388.0367,-159 388.0367,-159 581.6256,-159 581.6256,-159"/>
<polygon fill="#000000" stroke="#000000" points="581.6257,-162.5001 591.6256,-159 581.6256,-155.5001 581.6257,-162.5001"/>
</g>
<!-- SalariesComponent -->
<g id="node8" class="node">
<title>SalariesComponent</title>
<polygon fill="#ffffb3" stroke="#000000" points="307.6457,-122 182.3543,-122 182.3543,-86 307.6457,-86 307.6457,-122"/>
<text text-anchor="middle" x="245" y="-99.8" font-family="Times,serif" font-size="14.00" fill="#000000">SalariesComponent</text>
</g>
<!-- SalariesComponent&#45;&gt;SharedModule -->
<g id="edge8" class="edge">
<title>SalariesComponent&#45;&gt;SharedModule</title>
<path fill="none" stroke="#000000" d="M303.1976,-122.0225C303.1976,-139.3734 303.1976,-163 303.1976,-163 303.1976,-163 581.5189,-163 581.5189,-163"/>
<polygon fill="#000000" stroke="#000000" points="581.5189,-166.5001 591.5189,-163 581.5188,-159.5001 581.5189,-166.5001"/>
</g>
<!-- SidebarComponent -->
<g id="node9" class="node">
<title>SidebarComponent</title>
<polygon fill="#ffffb3" stroke="#000000" points="164.0954,-122 39.9046,-122 39.9046,-86 164.0954,-86 164.0954,-122"/>
<text text-anchor="middle" x="102" y="-99.8" font-family="Times,serif" font-size="14.00" fill="#000000">SidebarComponent</text>
</g>
<!-- SidebarComponent&#45;&gt;SharedModule -->
<g id="edge9" class="edge">
<title>SidebarComponent&#45;&gt;SharedModule</title>
<path fill="none" stroke="#000000" d="M157.9227,-122.2222C157.9227,-140.8285 157.9227,-167 157.9227,-167 157.9227,-167 581.5725,-167 581.5725,-167"/>
<polygon fill="#000000" stroke="#000000" points="581.5725,-170.5001 591.5725,-167 581.5724,-163.5001 581.5725,-170.5001"/>
</g>
<!-- AreaComponent  -->
<g id="node11" class="node">
<title>AreaComponent </title>
<polygon fill="#fb8072" stroke="#000000" points="1276.0288,-252 1163.9712,-252 1163.9712,-216 1276.0288,-216 1276.0288,-252"/>
<text text-anchor="middle" x="1220" y="-229.8" font-family="Times,serif" font-size="14.00" fill="#000000">AreaComponent </text>
</g>
<!-- SharedModule&#45;&gt;AreaComponent  -->
<g id="edge10" class="edge">
<title>SharedModule&#45;&gt;AreaComponent </title>
<path fill="none" stroke="#000000" stroke-dasharray="5,2" d="M690.641,-171C829.4706,-171 1211.625,-171 1211.625,-171 1211.625,-171 1211.625,-205.7778 1211.625,-205.7778"/>
<polygon fill="#000000" stroke="#000000" points="1208.1251,-205.7778 1211.625,-215.7778 1215.1251,-205.7778 1208.1251,-205.7778"/>
</g>
<!-- CardComponent  -->
<g id="node12" class="node">
<title>CardComponent </title>
<polygon fill="#fb8072" stroke="#000000" points="1146.0442,-252 1033.9558,-252 1033.9558,-216 1146.0442,-216 1146.0442,-252"/>
<text text-anchor="middle" x="1090" y="-229.8" font-family="Times,serif" font-size="14.00" fill="#000000">CardComponent </text>
</g>
<!-- SharedModule&#45;&gt;CardComponent  -->
<g id="edge11" class="edge">
<title>SharedModule&#45;&gt;CardComponent </title>
<path fill="none" stroke="#000000" stroke-dasharray="5,2" d="M690.4304,-175C805.8014,-175 1083.125,-175 1083.125,-175 1083.125,-175 1083.125,-205.9775 1083.125,-205.9775"/>
<polygon fill="#000000" stroke="#000000" points="1079.6251,-205.9774 1083.125,-215.9775 1086.6251,-205.9775 1079.6251,-205.9774"/>
</g>
<!-- ColumnchartComponent  -->
<g id="node13" class="node">
<title>ColumnchartComponent </title>
<polygon fill="#fb8072" stroke="#000000" points="1015.9306,-252 858.0694,-252 858.0694,-216 1015.9306,-216 1015.9306,-252"/>
<text text-anchor="middle" x="937" y="-229.8" font-family="Times,serif" font-size="14.00" fill="#000000">ColumnchartComponent </text>
</g>
<!-- SharedModule&#45;&gt;ColumnchartComponent  -->
<g id="edge12" class="edge">
<title>SharedModule&#45;&gt;ColumnchartComponent </title>
<path fill="none" stroke="#000000" stroke-dasharray="5,2" d="M690.4887,-179C767.5378,-179 907.4282,-179 907.4282,-179 907.4282,-179 907.4282,-205.9909 907.4282,-205.9909"/>
<polygon fill="#000000" stroke="#000000" points="903.9283,-205.9909 907.4282,-215.9909 910.9283,-205.991 903.9283,-205.9909"/>
</g>
<!-- DonutComponent  -->
<g id="node14" class="node">
<title>DonutComponent </title>
<polygon fill="#fb8072" stroke="#000000" points="839.8297,-252 720.1703,-252 720.1703,-216 839.8297,-216 839.8297,-252"/>
<text text-anchor="middle" x="780" y="-229.8" font-family="Times,serif" font-size="14.00" fill="#000000">DonutComponent </text>
</g>
<!-- SharedModule&#45;&gt;DonutComponent  -->
<g id="edge13" class="edge">
<title>SharedModule&#45;&gt;DonutComponent </title>
<path fill="none" stroke="#000000" stroke-dasharray="5,2" d="M690.3265,-183C722.3323,-183 758.1117,-183 758.1117,-183 758.1117,-183 758.1117,-205.8757 758.1117,-205.8757"/>
<polygon fill="#000000" stroke="#000000" points="754.6118,-205.8757 758.1117,-215.8757 761.6118,-205.8757 754.6118,-205.8757"/>
</g>
<!-- FooterComponent  -->
<g id="node15" class="node">
<title>FooterComponent </title>
<polygon fill="#fb8072" stroke="#000000" points="701.8814,-252 580.1186,-252 580.1186,-216 701.8814,-216 701.8814,-252"/>
<text text-anchor="middle" x="641" y="-229.8" font-family="Times,serif" font-size="14.00" fill="#000000">FooterComponent </text>
</g>
<!-- SharedModule&#45;&gt;FooterComponent  -->
<g id="edge14" class="edge">
<title>SharedModule&#45;&gt;FooterComponent </title>
<path fill="none" stroke="#000000" stroke-dasharray="5,2" d="M641,-187.1061C641,-187.1061 641,-205.991 641,-205.991"/>
<polygon fill="#000000" stroke="#000000" points="637.5001,-205.9909 641,-215.991 644.5001,-205.991 637.5001,-205.9909"/>
</g>
<!-- HeaderComponent  -->
<g id="node16" class="node">
<title>HeaderComponent </title>
<polygon fill="#fb8072" stroke="#000000" points="562.7436,-252 437.2564,-252 437.2564,-216 562.7436,-216 562.7436,-252"/>
<text text-anchor="middle" x="500" y="-229.8" font-family="Times,serif" font-size="14.00" fill="#000000">HeaderComponent </text>
</g>
<!-- SharedModule&#45;&gt;HeaderComponent  -->
<g id="edge15" class="edge">
<title>SharedModule&#45;&gt;HeaderComponent </title>
<path fill="none" stroke="#000000" stroke-dasharray="5,2" d="M591.654,-183C545.0651,-183 482.2928,-183 482.2928,-183 482.2928,-183 482.2928,-205.8757 482.2928,-205.8757"/>
<polygon fill="#000000" stroke="#000000" points="478.7929,-205.8757 482.2928,-215.8757 485.7929,-205.8757 478.7929,-205.8757"/>
</g>
<!-- PieComponent  -->
<g id="node17" class="node">
<title>PieComponent </title>
<polygon fill="#fb8072" stroke="#000000" points="419.2206,-252 316.7794,-252 316.7794,-216 419.2206,-216 419.2206,-252"/>
<text text-anchor="middle" x="368" y="-229.8" font-family="Times,serif" font-size="14.00" fill="#000000">PieComponent </text>
</g>
<!-- SharedModule&#45;&gt;PieComponent  -->
<g id="edge16" class="edge">
<title>SharedModule&#45;&gt;PieComponent </title>
<path fill="none" stroke="#000000" stroke-dasharray="5,2" d="M591.481,-179C510.031,-179 356.7133,-179 356.7133,-179 356.7133,-179 356.7133,-205.9909 356.7133,-205.9909"/>
<polygon fill="#000000" stroke="#000000" points="353.2134,-205.9909 356.7133,-215.9909 360.2134,-205.991 353.2134,-205.9909"/>
</g>
<!-- SalariesComponent  -->
<g id="node18" class="node">
<title>SalariesComponent </title>
<polygon fill="#fb8072" stroke="#000000" points="298.6453,-252 169.3547,-252 169.3547,-216 298.6453,-216 298.6453,-252"/>
<text text-anchor="middle" x="234" y="-229.8" font-family="Times,serif" font-size="14.00" fill="#000000">SalariesComponent </text>
</g>
<!-- SharedModule&#45;&gt;SalariesComponent  -->
<g id="edge17" class="edge">
<title>SharedModule&#45;&gt;SalariesComponent </title>
<path fill="none" stroke="#000000" stroke-dasharray="5,2" d="M591.4737,-175C484.2862,-175 240.375,-175 240.375,-175 240.375,-175 240.375,-205.9775 240.375,-205.9775"/>
<polygon fill="#000000" stroke="#000000" points="236.8751,-205.9774 240.375,-215.9775 243.8751,-205.9775 236.8751,-205.9774"/>
</g>
<!-- SidebarComponent  -->
<g id="node19" class="node">
<title>SidebarComponent </title>
<polygon fill="#fb8072" stroke="#000000" points="151.596,-252 24.404,-252 24.404,-216 151.596,-216 151.596,-252"/>
<text text-anchor="middle" x="88" y="-229.8" font-family="Times,serif" font-size="14.00" fill="#000000">SidebarComponent </text>
</g>
<!-- SharedModule&#45;&gt;SidebarComponent  -->
<g id="edge18" class="edge">
<title>SharedModule&#45;&gt;SidebarComponent </title>
<path fill="none" stroke="#000000" stroke-dasharray="5,2" d="M591.6623,-171C457.4749,-171 95.875,-171 95.875,-171 95.875,-171 95.875,-205.7778 95.875,-205.7778"/>
<polygon fill="#000000" stroke="#000000" points="92.3751,-205.7778 95.875,-215.7778 99.3751,-205.7778 92.3751,-205.7778"/>
</g>
</g>
</svg>
