<?xml version="1.0" encoding="UTF-8" standalone="no"?>
<!DOCTYPE svg PUBLIC "-//W3C//DTD SVG 1.1//EN"
 "http://www.w3.org/Graphics/SVG/1.1/DTD/svg11.dtd">
<!-- Generated by graphviz version 2.40.1 (20161225.0304)
 -->
<!-- Title: dependencies Pages: 1 -->
<svg width="1514pt" height="211pt"
 viewBox="0.00 0.00 1514.00 211.00" xmlns="http://www.w3.org/2000/svg" xmlns:xlink="http://www.w3.org/1999/xlink">
<g id="graph0" class="graph" transform="scale(1 1) rotate(0) translate(4 207)">
<title>dependencies</title>
<polygon fill="#ffffff" stroke="transparent" points="-4,4 -4,-207 1510,-207 1510,4 -4,4"/>
<text text-anchor="start" x="732.0091" y="-42.4" font-family="sans-serif" font-weight="bold" font-size="14.00" fill="#000000">Legend</text>
<polygon fill="#ffffb3" stroke="transparent" points="519,-10 519,-30 539,-30 539,-10 519,-10"/>
<text text-anchor="start" x="542.629" y="-15.4" font-family="sans-serif" font-size="14.00" fill="#000000"> &#160;Declarations</text>
<polygon fill="#8dd3c7" stroke="transparent" points="632,-10 632,-30 652,-30 652,-10 632,-10"/>
<text text-anchor="start" x="655.7251" y="-15.4" font-family="sans-serif" font-size="14.00" fill="#000000"> &#160;Module</text>
<polygon fill="#80b1d3" stroke="transparent" points="718,-10 718,-30 738,-30 738,-10 718,-10"/>
<text text-anchor="start" x="741.7812" y="-15.4" font-family="sans-serif" font-size="14.00" fill="#000000"> &#160;Bootstrap</text>
<polygon fill="#fdb462" stroke="transparent" points="815,-10 815,-30 835,-30 835,-10 815,-10"/>
<text text-anchor="start" x="838.6732" y="-15.4" font-family="sans-serif" font-size="14.00" fill="#000000"> &#160;Providers</text>
<polygon fill="#fb8072" stroke="transparent" points="911,-10 911,-30 931,-30 931,-10 911,-10"/>
<text text-anchor="start" x="934.7258" y="-15.4" font-family="sans-serif" font-size="14.00" fill="#000000"> &#160;Exports</text>
<g id="clust1" class="cluster">
<title>cluster_DefaultModule</title>
<polygon fill="none" stroke="#000000" stroke-dasharray="1,5" points="8,-70 8,-195 1498,-195 1498,-70 8,-70"/>
</g>
<g id="clust2" class="cluster">
<title>cluster_DefaultModule_declarations</title>
<polygon fill="none" stroke="#000000" points="326,-78 326,-130 1490,-130 1490,-78 326,-78"/>
</g>
<g id="clust10" class="cluster">
<title>cluster_DefaultModule_imports</title>
<polygon fill="none" stroke="#000000" points="204,-78 204,-130 318,-130 318,-78 204,-78"/>
</g>
<g id="clust13" class="cluster">
<title>cluster_DefaultModule_providers</title>
<polygon fill="none" stroke="#000000" points="16,-78 16,-130 196,-130 196,-78 16,-78"/>
</g>
<!-- DashboardComponent -->
<g id="node1" class="node">
<title>DashboardComponent</title>
<polygon fill="#ffffb3" stroke="#000000" points="1481.9734,-122 1340.0266,-122 1340.0266,-86 1481.9734,-86 1481.9734,-122"/>
<text text-anchor="middle" x="1411" y="-99.8" font-family="Times,serif" font-size="14.00" fill="#000000">DashboardComponent</text>
</g>
<!-- DefaultModule -->
<g id="node8" class="node">
<title>DefaultModule</title>
<polygon fill="#8dd3c7" stroke="#000000" points="785.5285,-187 782.5285,-191 761.5285,-191 758.5285,-187 684.4715,-187 684.4715,-151 785.5285,-151 785.5285,-187"/>
<text text-anchor="middle" x="735" y="-164.8" font-family="Times,serif" font-size="14.00" fill="#000000">DefaultModule</text>
</g>
<!-- DashboardComponent&#45;&gt;DefaultModule -->
<g id="edge1" class="edge">
<title>DashboardComponent&#45;&gt;DefaultModule</title>
<path fill="none" stroke="#000000" d="M1411,-122.0109C1411,-144.4852 1411,-180 1411,-180 1411,-180 795.5334,-180 795.5334,-180"/>
<polygon fill="#000000" stroke="#000000" points="795.5334,-176.5001 785.5334,-180 795.5334,-183.5001 795.5334,-176.5001"/>
</g>
<!-- DashboardHotelComponent -->
<g id="node2" class="node">
<title>DashboardHotelComponent</title>
<polygon fill="#ffffb3" stroke="#000000" points="1321.5758,-122 1148.4242,-122 1148.4242,-86 1321.5758,-86 1321.5758,-122"/>
<text text-anchor="middle" x="1235" y="-99.8" font-family="Times,serif" font-size="14.00" fill="#000000">DashboardHotelComponent</text>
</g>
<!-- DashboardHotelComponent&#45;&gt;DefaultModule -->
<g id="edge2" class="edge">
<title>DashboardHotelComponent&#45;&gt;DefaultModule</title>
<path fill="none" stroke="#000000" d="M1235,-122.1289C1235,-142.5724 1235,-173 1235,-173 1235,-173 795.6942,-173 795.6942,-173"/>
<polygon fill="#000000" stroke="#000000" points="795.6943,-169.5001 785.6942,-173 795.6942,-176.5001 795.6943,-169.5001"/>
</g>
<!-- DefaultComponent -->
<g id="node3" class="node">
<title>DefaultComponent</title>
<polygon fill="#ffffb3" stroke="#000000" points="1130.8104,-122 1007.1896,-122 1007.1896,-86 1130.8104,-86 1130.8104,-122"/>
<text text-anchor="middle" x="1069" y="-99.8" font-family="Times,serif" font-size="14.00" fill="#000000">DefaultComponent</text>
</g>
<!-- DefaultComponent&#45;&gt;DefaultModule -->
<g id="edge3" class="edge">
<title>DefaultComponent&#45;&gt;DefaultModule</title>
<path fill="none" stroke="#000000" d="M1069,-122.2667C1069,-140.5552 1069,-166 1069,-166 1069,-166 795.7274,-166 795.7274,-166"/>
<polygon fill="#000000" stroke="#000000" points="795.7274,-162.5001 785.7274,-166 795.7274,-169.5001 795.7274,-162.5001"/>
</g>
<!-- ManagerProfileComponent -->
<g id="node4" class="node">
<title>ManagerProfileComponent</title>
<polygon fill="#ffffb3" stroke="#000000" points="989.6811,-122 820.3189,-122 820.3189,-86 989.6811,-86 989.6811,-122"/>
<text text-anchor="middle" x="905" y="-99.8" font-family="Times,serif" font-size="14.00" fill="#000000">ManagerProfileComponent</text>
</g>
<!-- ManagerProfileComponent&#45;&gt;DefaultModule -->
<g id="edge4" class="edge">
<title>ManagerProfileComponent&#45;&gt;DefaultModule</title>
<path fill="none" stroke="#000000" d="M905,-122.0091C905,-138.0494 905,-159 905,-159 905,-159 795.5453,-159 795.5453,-159"/>
<polygon fill="#000000" stroke="#000000" points="795.5454,-155.5001 785.5453,-159 795.5453,-162.5001 795.5454,-155.5001"/>
</g>
<!-- NotfoundComponent -->
<g id="node5" class="node">
<title>NotfoundComponent</title>
<polygon fill="#ffffb3" stroke="#000000" points="802.4902,-122 667.5098,-122 667.5098,-86 802.4902,-86 802.4902,-122"/>
<text text-anchor="middle" x="735" y="-99.8" font-family="Times,serif" font-size="14.00" fill="#000000">NotfoundComponent</text>
</g>
<!-- NotfoundComponent&#45;&gt;DefaultModule -->
<g id="edge5" class="edge">
<title>NotfoundComponent&#45;&gt;DefaultModule</title>
<path fill="none" stroke="#000000" d="M735,-122.1061C735,-122.1061 735,-140.991 735,-140.991"/>
<polygon fill="#000000" stroke="#000000" points="731.5001,-140.9909 735,-150.991 738.5001,-140.991 731.5001,-140.9909"/>
</g>
<!-- PostsComponent -->
<g id="node6" class="node">
<title>PostsComponent</title>
<polygon fill="#ffffb3" stroke="#000000" points="649.3948,-122 538.6052,-122 538.6052,-86 649.3948,-86 649.3948,-122"/>
<text text-anchor="middle" x="594" y="-99.8" font-family="Times,serif" font-size="14.00" fill="#000000">PostsComponent</text>
</g>
<!-- PostsComponent&#45;&gt;DefaultModule -->
<g id="edge6" class="edge">
<title>PostsComponent&#45;&gt;DefaultModule</title>
<path fill="none" stroke="#000000" d="M594,-122.0091C594,-138.0494 594,-159 594,-159 594,-159 674.0958,-159 674.0958,-159"/>
<polygon fill="#000000" stroke="#000000" points="674.0958,-162.5001 684.0958,-159 674.0957,-155.5001 674.0958,-162.5001"/>
</g>
<!-- UsersManagementComponent -->
<g id="node7" class="node">
<title>UsersManagementComponent</title>
<polygon fill="#ffffb3" stroke="#000000" points="520.2878,-122 333.7122,-122 333.7122,-86 520.2878,-86 520.2878,-122"/>
<text text-anchor="middle" x="427" y="-99.8" font-family="Times,serif" font-size="14.00" fill="#000000">UsersManagementComponent</text>
</g>
<!-- UsersManagementComponent&#45;&gt;DefaultModule -->
<g id="edge7" class="edge">
<title>UsersManagementComponent&#45;&gt;DefaultModule</title>
<path fill="none" stroke="#000000" d="M427,-122.2667C427,-140.5552 427,-166 427,-166 427,-166 674.1401,-166 674.1401,-166"/>
<polygon fill="#000000" stroke="#000000" points="674.1401,-169.5001 684.1401,-166 674.14,-162.5001 674.1401,-169.5001"/>
</g>
<!-- SharedModule -->
<g id="node9" class="node">
<title>SharedModule</title>
<polygon fill="#8dd3c7" stroke="#000000" points="310.4231,-122 307.4231,-126 286.4231,-126 283.4231,-122 211.5769,-122 211.5769,-86 310.4231,-86 310.4231,-122"/>
<text text-anchor="middle" x="261" y="-99.8" font-family="Times,serif" font-size="14.00" fill="#000000">SharedModule</text>
</g>
<!-- SharedModule&#45;&gt;DefaultModule -->
<g id="edge8" class="edge">
<title>SharedModule&#45;&gt;DefaultModule</title>
<path fill="none" stroke="#000000" d="M261,-122.1289C261,-142.5724 261,-173 261,-173 261,-173 674.2737,-173 674.2737,-173"/>
<polygon fill="#000000" stroke="#000000" points="674.2737,-176.5001 684.2737,-173 674.2737,-169.5001 674.2737,-176.5001"/>
</g>
<!-- DashboardService -->
<g id="node10" class="node">
<title>DashboardService</title>
<ellipse fill="#fdb462" stroke="#000000" cx="106" cy="-104" rx="81.6423" ry="18"/>
<text text-anchor="middle" x="106" y="-99.8" font-family="Times,serif" font-size="14.00" fill="#000000">DashboardService</text>
</g>
<!-- DashboardService&#45;&gt;DefaultModule -->
<g id="edge9" class="edge">
<title>DashboardService&#45;&gt;DefaultModule</title>
<path fill="none" stroke="#000000" d="M106,-122.0109C106,-144.4852 106,-180 106,-180 106,-180 674.3246,-180 674.3246,-180"/>
<polygon fill="#000000" stroke="#000000" points="674.3247,-183.5001 684.3246,-180 674.3246,-176.5001 674.3247,-183.5001"/>
</g>
</g>
</svg>
